<?xml version="1.0" standalone="no"?>
<!DOCTYPE svg PUBLIC "-//W3C//DTD SVG 20010904//EN"
 "http://www.w3.org/TR/2001/REC-SVG-20010904/DTD/svg10.dtd">
<svg version="1.0" xmlns="http://www.w3.org/2000/svg"
 width="71.000000pt" height="82.000000pt" viewBox="0 0 71.000000 82.000000"
 preserveAspectRatio="xMidYMid meet">
<metadata>
Created by potrace 1.11, written by Peter Selinger 2001-2013
</metadata>
<g transform="translate(0.000000,82.000000) scale(0.100000,-0.100000)"
fill="#000000" stroke="none">
<path d="M198 722 l-157 -66 -3 -104 c-2 -57 -2 -105 0 -107 2 -2 76 28 164
67 l162 70 152 -66 c84 -36 155 -66 159 -66 3 0 4 46 3 102 l-3 102 -155 68
c-85 37 -157 67 -160 67 -3 0 -76 -30 -162 -67z"/>
<path d="M40 266 l0 -104 154 -66 c85 -36 160 -66 166 -66 7 0 81 30 166 67
l154 66 0 104 c0 56 -2 103 -6 103 -9 0 -195 -81 -254 -110 l-55 -27 -148 62
c-81 35 -154 66 -162 69 -13 4 -15 -12 -15 -98z"/>
</g>
</svg>
